<?xml version="1.0" encoding="UTF-8"?>
<!DOCTYPE svg PUBLIC "-//W3C//DTD SVG 1.1//EN" "http://www.w3.org/Graphics/SVG/1.1/DTD/svg11.dtd">
<!-- Creator: CorelDRAW X6 -->
<svg xmlns="http://www.w3.org/2000/svg" xml:space="preserve" width="12.003in" height="12.7518in" version="1.1" style="shape-rendering:geometricPrecision; text-rendering:geometricPrecision; image-rendering:optimizeQuality; fill-rule:evenodd; clip-rule:evenodd"
viewBox="0 0 3692 3922"
 xmlns:xlink="http://www.w3.org/1999/xlink">
 <defs>
  <style type="text/css">
   <![CDATA[
    .str0 {stroke:#373435;stroke-width:12.0}
    .fil0 {fill:none}
   ]]>
  </style>
 </defs>
 <g id="Layer_x0020_1">
  <metadata id="CorelCorpID_0Corel-Layer"/>
  <path class="fil0 str0" d="M2662 2262c91,-283 310,-511 482,-471 289,165 118,629 91,702 -72,196 -306,538 -506,411 -198,-126 -103,-532 -68,-643zm880 215l-116 -112 -284 571 122 112 278 -571zm-1163 -247l278 -568 119 111 -275 574 -122 -116zm-737 1274l13 -1024 231 80 -16 1023 -228 -80zm1639 -2795l-236 -82 -379 227 224 80 390 -226zm-1691 965c19,-162 65,-266 174,-349l1307 -772c36,-29 65,-25 85,-23l319 103c158,70 206,168 215,307l-33 1942c0,108 -48,167 -128,236l-1364 793c-69,14 -122,16 -195,5l-323 -121c-43,-27 -60,-47 -68,-103l12 -2018zm470 2084c-7,-701 -38,-2080 40,-2124l1442 -819 27 -14c17,-3 29,12 17,31l-1444 833c-82,47 -41,1888 -39,2094 -11,15 -31,17 -44,0zm76 -3487c-12,-33 -4,-188 -183,-116l-1310 776c-83,69 -163,130 -161,352l-21 1945c5,165 103,161 120,165l785 -440 -868 -309 20 -1381c7,-206 100,-272 142,-288l815 280 623 -370 28 12 9 -625zm-1975 545l1356 -792c89,-36 140,-21 191,-8l306 111c-30,2 -49,8 -72,21l-1317 772c-92,65 -157,150 -163,352l-22 1949c8,127 38,139 107,181l-383 -128c-74,-54 -134,-69 -163,-246l20 -1939c10,-205 67,-216 140,-274zm276 -55l383 -234 233 83 -389 233 -227 -82zm-279 558l237 83 -15 1016 -234 -79 12 -1020zm387 -26l-21 1311 1015 362 18 -1300c10,-167 64,-247 121,-304l-1015 -353c-60,33 -115,133 -119,284zm192 1126l8 -407 629 217 -8 404 -629 -214zm975 -1085c18,-16 32,-28 48,-35l531 -305 -195 -93 -595 360 210 73z"/>
 </g>
</svg>
