<?xml version="1.0" encoding="UTF-8" standalone="no"?>
<!-- Generator: Adobe Illustrator 21.1.0, SVG Export Plug-In . SVG Version: 6.00 Build 0)  -->

<svg
   xmlns:dc="http://purl.org/dc/elements/1.1/"
   xmlns:cc="http://creativecommons.org/ns#"
   xmlns:rdf="http://www.w3.org/1999/02/22-rdf-syntax-ns#"
   xmlns:svg="http://www.w3.org/2000/svg"
   xmlns="http://www.w3.org/2000/svg"
   xmlns:sodipodi="http://sodipodi.sourceforge.net/DTD/sodipodi-0.dtd"
   xmlns:inkscape="http://www.inkscape.org/namespaces/inkscape"
   version="1.1"
   x="0px"
   y="0px"
   viewBox="0 0 1598.5 1598.5"
   style="enable-background:new 0 0 1598.5 1598.5;"
   xml:space="preserve"
   id="svg763"
   sodipodi:docname="astrobee2.svg"
   inkscape:version="0.92.4 (5da689c313, 2019-01-14)"
   inkscape:label="g-clip"><metadata
   id="metadata769"><rdf:RDF><cc:Work
       rdf:about=""><dc:format>image/svg+xml</dc:format><dc:type
         rdf:resource="http://purl.org/dc/dcmitype/StillImage" /><dc:title /></cc:Work></rdf:RDF></metadata><defs
   id="defs767">
		
		
		
		
		
		
		
		
		
		
		
		
		
		
		
		
		
		
		
		
		
		
		
		
		
		
		
		
		
		
		
		
		
		
		
		
		
		
		
		
	
	
		
	
	
	
	
	
	
	
	
</defs><sodipodi:namedview
   pagecolor="#ffffff"
   bordercolor="#666666"
   borderopacity="1"
   objecttolerance="10"
   gridtolerance="10"
   guidetolerance="10"
   inkscape:pageopacity="0"
   inkscape:pageshadow="2"
   inkscape:window-width="1920"
   inkscape:window-height="1016"
   id="namedview765"
   showgrid="false"
   inkscape:zoom="0.51298092"
   inkscape:cx="799.25"
   inkscape:cy="799.25"
   inkscape:window-x="0"
   inkscape:window-y="36"
   inkscape:window-maximized="1"
   inkscape:current-layer="svg763" />
<style
   type="text/css"
   id="style2">
	.st0{fill:#6D6E71;}
	.st1{fill:#D5DFFF;}
	.st2{fill:none;stroke:#000000;stroke-width:5;stroke-miterlimit:10;}
	.st3{fill:none;stroke:#000000;stroke-width:2;stroke-miterlimit:10;}
	.st4{fill:#6D6E71;stroke:#000000;stroke-miterlimit:10;}
	.st5{fill:#333333;stroke:#000000;stroke-miterlimit:10;}
	.st6{fill:#ACBCFD;stroke:#000000;stroke-width:3;stroke-miterlimit:10;}
	.st7{fill:#0055A8;stroke:#000000;stroke-miterlimit:10;}
	.st8{display:none;}
	.st9{display:inline;fill:#F1F2F2;}
	.st10{fill:#231F20;}
	.st11{fill:#FFCC00;}
	.st12{fill:#F1F2F2;}
	.st13{fill:#D1D3D4;}
	.st14{fill:#FFFFFF;}
	.st15{fill:#FFD700;}
	.st16{fill:#A7A9AC;}
	.st17{fill:#58595B;}
	.st18{fill:#ED1C24;}
	.st19{opacity:0.3;}
	.st20{clip-path:url(#SVGID_2_);fill:#6D6E71;}
	.st21{clip-path:url(#SVGID_4_);fill:#6D6E71;}
	.st22{clip-path:url(#SVGID_6_);fill:#6D6E71;}
	.st23{clip-path:url(#SVGID_8_);fill:#6D6E71;}
	.st24{clip-path:url(#SVGID_10_);fill:#6D6E71;}
	.st25{fill:#E6E7E8;}
	.st26{fill-rule:evenodd;clip-rule:evenodd;fill:#0055A8;}
	.st27{fill-rule:evenodd;clip-rule:evenodd;fill:#FFFFFF;}
	.st28{fill-rule:evenodd;clip-rule:evenodd;fill:#58595B;}
	.st29{fill-rule:evenodd;clip-rule:evenodd;fill:#ED1C24;}
	.st30{fill-rule:evenodd;clip-rule:evenodd;fill:#EC1C24;}
	.st31{fill:#333333;}
	.st32{fill:#404244;}
	.st33{fill:#999999;}
	.st34{fill:#CCCCCC;}
	.st35{fill:none;stroke:#99FF00;stroke-miterlimit:10;}
	.st36{fill:#FFFF99;}
	.st37{fill:#FFFF00;}
	.st38{fill:none;stroke:#FFFFFF;stroke-width:2;stroke-miterlimit:10;}
	.st39{display:inline;}
	.st40{opacity:0.1;fill:#FFFFFF;}
	.st41{opacity:0.3;fill:#FFFFFF;}
	.st42{opacity:0.4;fill:#FFFFFF;}
</style>

<g
   id="g974"
   inkscape:label="Astrobee2"
   style="display:inline"><g
     inkscape:label="g-arm"
     id="g585"
     style="display:inline;fill:none;stroke:#000000;stroke-opacity:1">
			<polyline
   style="fill:none;stroke:#000000;stroke-opacity:1"
   id="polyline539"
   points="1181.2,561.8 1168.9,556.9 1171.5,533.4 1189.8,539.3    "
   class="st32" />
			<path
   sodipodi:nodetypes="cccccc"
   inkscape:connector-curvature="0"
   id="polygon541"
   d="m 1225.1,580 -3.4,31.2 -6.2,-2.7 2.6,-24.9 3.7,-5.3 z"
   style="display:inline;fill:none;stroke:#000000;stroke-opacity:1" />
			<path
   sodipodi:nodetypes="ccccc"
   inkscape:connector-curvature="0"
   id="polygon543"
   d="m 1218.1,583.6 -3,28.3 -7.9,9.2 -7,-27.1 z"
   style="fill:none;stroke:#000000;stroke-opacity:1" />
			<path
   style="fill:none;stroke:#000000;stroke-opacity:1"
   inkscape:connector-curvature="0"
   id="path545"
   d="m 1096.5,636.1 c 0,0 1.2,1.2 3.2,1.7 2,0.5 25.3,-15.4 25.3,-15.4 l 28,17.6 16.6,-17.1 -25.5,-13.1 -24.9,-2.9 -24.4,12.5 -1,14 z"
   class="st10" />
			<path
   style="fill:none;stroke:#000000;stroke-opacity:1"
   inkscape:connector-curvature="0"
   id="path547"
   d="m 1153.7,660.3 c 0.9,4.9 7.2,2 7.2,2 l 16.3,-11.7 c 0,0 1.4,-6.4 2,-9.8 6,-9.4 14.9,-8.4 16.6,-8 1.8,0.4 3.5,1.1 3.5,1.1 l 8.9,-10 2.1,-23.9 -56.1,41.6"
   class="st32" />
			<path
   sodipodi:nodetypes="ccccscccsccccccsccccccccscccccc"
   style="fill:none;stroke:#000000;stroke-opacity:1"
   inkscape:connector-curvature="0"
   id="path549"
   d="m 1218.1,583.6 -4.2,-1.8 -33.6,-1.3 -6.5,3.4 c 0,0 -10.3,-4 -11.9,-4.5 -1.6,-0.5 -2,-0.1 -2,-0.1 l -10.3,5.1 c 0,0 -1.3,4.8 -2.3,6.2 -3.3,4.6 -15.6,12 -20.5,12.6 -4.9,0.6 -12,-2.5 -12,-2.5 l -18.6,8.6 c 0,0 -12.7,4.5 -12.2,17 0.4,4.6 3,5.6 3,5.6 l 9.5,4.2 c 0,0 -1.2,-2.1 -1,-4.9 0.2,-2.9 0.3,-10.1 8.1,-13.7 7.8,-3.6 18.9,-8.7 18.9,-8.7 l 37.9,16.2 -15.1,10.3 c 0,0 -6.9733,4.36173 -7.7733,15.66173 0.2,5.3 2.3733,8.03827 2.3733,8.03827 l 11.7,5.1 c 0,0 2.5,0 4.6,-1.1 -1.9,-1.2 -3,-2 -2.5,-5.4 0.4,-3.4 1.4,-9.6 6.3,-13.2 4.9,-3.6 20.4,-14.3 20.4,-14.3 0,0 0.4,-0.8 1.4,-2 1.1,-1.2 9.8,-17.5 18.4,-18.4 4.8,-3.9 10.2,-9.8 10.2,-9.8 l -10.2,-5.9 z"
   class="st17" />
			<path
   style="fill:none;stroke:#000000;stroke-opacity:1"
   inkscape:connector-curvature="0"
   id="path551"
   d="m 1185.1,542.6 c 0,0 -1.1,-0.5 -1.7,3 -0.6,3.5 -4.9,37 -4.9,37 0,0 0.4,5 7.4,6.5 7,1.5 12.9,1.5 15.6,0.4 2.6,-1.2 20.3,-11.2 20.3,-11.2 0,0 2.2,0.2 3.3,1.7 -0.9,13.3 -3.4,31.3 -3.4,31.3 l 5.2,-5.3 5,-26.6 2.1,0.9 c 0,0 2.3,0.4 2.5,-0.7 0.2,-1 4.3,-24.4 4.3,-24.4 L 1214,546"
   class="st32" />
			<path
   style="fill:none;stroke:#000000;stroke-opacity:1"
   inkscape:connector-curvature="0"
   id="path553"
   d="m 1212.4,524.9 8.4,-7.9 c 0,0 -0.9,-2.6 1,-3.3 1.9,-0.7 7.6,-0.6 7.6,-0.6 l 2.5,0.6 3.9,1.4 1.8,-1.1 c 0,0 10,-0.1 10.4,0.4 0.4,0.5 5.2,5.3 5.2,5.3 0,0 -11.5,-0.8 -13.2,-0.9 -1,0.4 -2.8,2.4 -2.8,2.4 l -7.2,7.5"
   class="st17" />
			<polygon
   style="fill:none;stroke:#000000;stroke-opacity:1"
   id="polygon555"
   points="1253,519.6 1251.6,527.8 1238.2,531.5 1229.8,528.6 1239.3,518.7 "
   class="st10" />
			<polygon
   style="fill:none;stroke:#000000;stroke-opacity:1"
   id="polygon557"
   points="1261.5,523.1 1250.3,514.5 1250.2,516 1251.7,519.5 1252.1,528.6 1260.3,527.1 1267.8,527.3 1269.4,526.3 "
   class="st32" />
			
				<ellipse
   style="fill:none;stroke:#000000;stroke-opacity:1"
   id="ellipse559"
   ry="5.5"
   rx="1.7"
   cy="515.40002"
   cx="1231.1"
   class="st33"
   transform="matrix(0.06943183,-0.9976,0.9976,0.06943183,631.4713,1707.6536)" />
			<path
   style="fill:none;stroke:#000000;stroke-opacity:1"
   inkscape:connector-curvature="0"
   id="path561"
   d="m 1282.4,528.9 c 0,0 1.8,1 1.3,3.4 -0.5,2.4 -4.4,18.3 -4.4,18.3 0,0 -1.8,1.3 -4.2,1.4 -2.4,0.1 -2.8,0.2 -5,0.5 l -11.7,2.7 2.1,-12 -8.4,-2.2 -14.2,-9.6 1.7,-0.5 z"
   class="st32" />
			<path
   style="fill:none;stroke:#000000;stroke-opacity:1"
   inkscape:connector-curvature="0"
   id="path563"
   d="m 1250.3,514.5 c 0,0 0.2,-1.1 0.9,-1.2 0.7,-0.1 5.2,-0.1 5.2,-0.1 l 13.8,5.1 7.6,7.3 c 0,0 1,1.5 0.9,1.9 -0.1,0.4 1.5,0.3 2.6,0.7 1.1,0.4 3.7,2.4 -3.4,3.4 -7.1,1 -24.7,4.7 -24.7,4.7 l -13.7,-5.3 c 0,0 -0.5,-0.8 1.2,-0.9 1.7,-0.1 18.5,-3 18.5,-3 0,0 6,0.4 7.8,0.1 1.8,-0.3 2.5,-0.5 2.5,-0.5 0,0 -5.5,-2.1 -7.2,-2.4 -1.7,-0.3 -1.7,-1 -1.7,-1 z"
   class="st17" />
			
				<ellipse
   style="fill:none;stroke:#000000;stroke-opacity:1"
   id="ellipse565"
   ry="5.5"
   rx="1.7"
   cy="527.79999"
   cx="1273.5"
   class="st33"
   transform="matrix(0.06943183,-0.9976,0.9976,0.06943183,658.5956,1761.5868)" />
			
				<ellipse
   style="fill:none;stroke:#000000;stroke-opacity:1"
   id="ellipse567"
   ry="5.5"
   rx="1.7"
   cy="514.70001"
   cx="1231.1"
   class="st34"
   transform="matrix(0.06943183,-0.9976,0.9976,0.06943183,632.1038,1707.1108)" />
			
				<ellipse
   style="fill:none;stroke:#000000;stroke-opacity:1"
   id="ellipse569"
   ry="5.5"
   rx="1.7"
   cy="527.20001"
   cx="1273.6"
   class="st34"
   transform="matrix(0.06943183,-0.9976,0.9976,0.06943183,659.2282,1761.0439)" />
			<path
   style="fill:none;stroke:#000000;stroke-opacity:1"
   inkscape:connector-curvature="0"
   id="path571"
   d="m 1171.8,533.2 23.9,-9.4 c 0,0 4.8,1.4 7.8,1.4 2.9,0 7.2,-1.6 12.2,-0.4 5,1.2 28.6,8 28.6,8 0,0 4.2,1.2 5.5,5.9 1.1,2.2 4.4,2.8 4.4,2.8 l 6.8,2 -20,11.7 -26.9,-8.3 c 0,0 -0.6,-0.6 -2.6,0.2 -2,0.8 -6.9,4.4 -15.3,2.6 -8.5,-1.8 -13.7,-5.6 -10,-8.3 2.7,-1.8 3.6,-2.1 3.6,-2.1 l -17.4,-5.3 c 0,0 -1.4,-0.5 -0.6,-0.8 z"
   class="st17" />
			
				<ellipse
   style="fill:none;stroke:#000000;stroke-opacity:1"
   id="ellipse573"
   ry="5.5"
   rx="1.7"
   cy="533.5"
   cx="1238.1"
   class="st33"
   transform="matrix(0.06943183,-0.9976,0.9976,0.06943183,619.936,1731.5811)" />
			
				<ellipse
   style="fill:none;stroke:#000000;stroke-opacity:1"
   id="ellipse575"
   ry="5.5"
   rx="1.7"
   cy="527.79999"
   cx="1218.3"
   class="st33"
   transform="matrix(0.06943183,-0.9976,0.9976,0.06943183,607.2043,1706.5061)" />
			
				<ellipse
   style="fill:none;stroke:#000000;stroke-opacity:1"
   id="ellipse577"
   ry="5.5"
   rx="1.7"
   cy="532.90002"
   cx="1238.1"
   class="st34"
   transform="matrix(0.06943183,-0.9976,0.9976,0.06943183,620.5711,1731.0363)" />
			
				<ellipse
   style="fill:none;stroke:#000000;stroke-opacity:1"
   id="ellipse579"
   ry="5.5"
   rx="1.7"
   cy="527.20001"
   cx="1218.3"
   class="st34"
   transform="matrix(0.06943183,-0.9976,0.9976,0.06943183,607.8394,1705.9613)" />
			<path
   style="fill:none;stroke:#000000;stroke-opacity:1"
   inkscape:connector-curvature="0"
   id="path581"
   d="M 1261,543.4"
   class="st10" />
			<polygon
   style="fill:none;stroke:#000000;stroke-opacity:1"
   id="polygon583"
   points="1241,555.1 1236.2,580.1 1256.7,567 1261,543.4 "
   class="st10" /><path
   style="display:inline;fill:none;stroke:#000000;stroke-opacity:1"
   inkscape:connector-curvature="0"
   id="path589"
   d="m 1137.2,639.9 c 0,0 0.4,-1.7 1.9,-2.5 1.5,-0.9 9.3,-5.5 9.3,-5.5 l 1.1,1.2 c 0,0 1.9,-1.3 -1.1,-2.6 -3.1,-1.4 -31.2,-13.9 -31.2,-13.9 l -7.2,4 c 0,0 -2.9,0.7 -4.2,5.2 -1.3,4.5 31.4,14.1 31.4,14.1 z"
   class="st17" /><path
   style="display:inline;fill:none;stroke:#000000;stroke-opacity:1"
   inkscape:connector-curvature="0"
   id="path587"
   d="m 1088.9,653.3 15.3,-7.9 39.6,16.4 c 0,0 1.7,0.6 0.6,2.2 -1.1,1.6 -15.8,7.9 -15.8,7.9 z"
   class="st17" /><polygon
   style="display:inline;fill:none;stroke:#000000;stroke-opacity:1"
   id="polygon655"
   points="1127.9,668.8 1097.1,654.7 1105.7,625.8 1137.2,639.9 "
   class="st32" /><path
   style="display:inline;fill:none;stroke:#000000;stroke-opacity:1"
   inkscape:connector-curvature="0"
   id="path653"
   d="m 1140.2,658.8 -0.9,3.2 -11.4,6.8 8.8,-27.8 c 0,0 0.9,-2.9 2.3,-3.7 1.4,-0.8 9.3,-5.5 9.3,-5.5 0,0 1.2,-0.1 1.2,0.6 0,0.7 0,0.7 0,0.7 0,0 -10.1,4.6 -11.3,16.6 -0.9,8 2,9.1 2,9.1 z"
   class="st10" />
		</g><g
     style="display:inline"
     inkscape:label="g-bumpers"
     id="g885"><path
       class="st32"
       d="m 1270.7,706.4 11.3,4.5 c 0,0 1.3,0.1 2,-1.6 0.7,-1.7 5.7,-20 5.7,-20 0,0 7.7,-34.4 -35.3,-51 -4.4,1.5 -4.4,1.5 -4.4,1.5 l -3.5,11.3 c 0,0 10.4,7.9 14.5,15 5.7,3.5 16.3,7.1 9.1,23.7 1.5,8.3 0.6,16.6 0.6,16.6 z"
       id="path591"
       inkscape:connector-curvature="0"
       style="display:inline;fill:none;stroke:#000000;stroke-opacity:1" /><path
       class="st10"
       d="m 1282,710.9 c 0,0 0.5,-9.5 -0.8,-15.5 7.1,-19.6 -4.9,-35.4 -17.3,-38.8 -0.8,-3.6 -13.9,-16.9 -13.9,-16.9 l -3.5,11.3 24.1,55.4 z"
       id="path593"
       inkscape:connector-curvature="0"
       style="display:inline;fill:none;stroke:#000000;stroke-opacity:1" /><path
       class="st32"
       d="m 1048.8,559.5 2,-6.9 c 0,0 0.7,-7.3 -2.6,-8.9 -3.3,-1.6 -21.9,-7.7 -21.9,-7.7 0,0 -15.5,-4.3 -29.3,0 -13.8,4.3 -15.2,8.6 -16.5,11.5 -1.3,2.9 -2.4,7.8 -2.4,7.8"
       id="path595"
       inkscape:connector-curvature="0"
       style="display:inline;fill:none;stroke:#000000;stroke-opacity:1" /><path
       class="st10"
       d="m 1048.8,559.5 c 0,0 1.6,-5.7 2,-10.3 0.4,-4.5 -3.8,-6 -3.8,-6 0,0 -2.9,0.7 -5.2,1.8 -17.2,-4.6 -31.3,-4.7 -31.3,-4.7 L 996.9,536 c 0,0 -8.1,0.8 -12,5.5 -3.9,4.7 -5.5,6.2 -6.9,13.8"
       id="path597"
       inkscape:connector-curvature="0"
       style="display:inline;fill:none;stroke:#000000;stroke-opacity:1" /><path
       style="display:inline;fill:none;stroke:#000000;stroke-opacity:1"
       inkscape:connector-curvature="0"
       id="path613"
       d="m 832.8,644.4 c 0,0 5.9,9.8 17.3,13.2 6.3,-6.4 29.9,-13.2 29.9,-13.2 0,0 9,-31 24.2,-36.1 -5.4,-6.9 -9.4,-16.9 -9.4,-16.9 0,0 -5.8,-4.5 -13.1,-4.5 -7.3,0 -15.2,1.8 -30.1,18.9 -14.8,17 -16.5,32.2 -18.8,38.6 z"
       class="st32" /><path
       style="display:inline;fill:none;stroke:#000000;stroke-opacity:1"
       inkscape:connector-curvature="0"
       id="path651"
       d="m 1109.9,756.4 c 0,0 8.9,-29.3 23.1,-39.1 14.1,3.3 20.2,3.5 33.6,4.1 13.4,0.7 24.6,19.7 24.3,33.6 -0.3,13.9 -21.8,42 -23.7,43.2 -1.8,1.2 -8.8,4 -14.2,3.5 -5.5,-0.5 -27.3,-8.4 -27.3,-8.4 0,0 -11.7,-30.2 -15.8,-36.9 z"
       class="st32" /><path
       style="display:inline;fill:none;stroke:#000000;stroke-opacity:1"
       inkscape:connector-curvature="0"
       id="path635"
       d="m 807.1,930.7 c -5.9,-5.2 -2,-18.6 -2,-18.6 L 789.9,878 c 0,0 -16,-8.6 -15.3,-14.5 0.7,-5.9 3.7,-8.4 5.4,-8.3 l 7.5,4.1 11.6,17.5 13.7,31 c 0,0 -2.1,11.3 4.4,11.5 -1.7,4.6 -2.8,7.8 -2.8,7.8 z"
       class="st10" /><path
       style="display:inline;fill:none;stroke:#000000;stroke-opacity:1"
       inkscape:connector-curvature="0"
       id="path631"
       d="m 1053.3,1011.3 c -8.9,5.8 -27.9,8.9 -27.9,8.9 l -6.4,6.3 -3.4,12.3 c 0,0 0.2,3.3 2.4,4.8 2.2,1.4 18.1,10.5 35.3,10.5 17.2,0 31.2,-6.7 40.8,-23 -1.4,-4.7 -3.6,-12.6 -3.6,-12.6 l -12.1,-5.8 c 0,0 -2.5,4.4 -7.4,4.2 -4.7,-0.1 -9.1,-0.5 -17.7,-5.6 z"
       class="st32" /><path
       style="display:inline;fill:none;stroke:#000000;stroke-opacity:1"
       inkscape:connector-curvature="0"
       id="path627"
       d="m 1203.3,896.4 c 0,0 7.1,4.1 7.1,9.6 0,5.5 -9.3,23.9 -14.8,32.5 -5.5,8.6 -11.2,13.6 -11.2,13.6 0,0 -8.1,7.6 -19.1,2.8"
       class="st32" /><path
       style="display:inline;fill:none;stroke:#000000;stroke-opacity:1"
       inkscape:connector-curvature="0"
       id="path621"
       d="m 787.5,859.3 -7.5,-4.1 c 0,0 -4.3,0.1 -5.6,9.4 -1.3,9.3 -5.6,23.6 5.6,45 5.7,13 27.1,21.1 27.1,21.1 l 7.1,-3.2 3,-8.3 c 0,0 -7.1,0.6 -4.4,-11.5 -4.8,-10.7 -13.7,-31 -13.7,-31"
       class="st32" /><path
       style="display:inline;fill:none;stroke:#000000;stroke-opacity:1"
       inkscape:connector-curvature="0"
       id="path615"
       d="m 880,644.4 c 0,0 3.8,-1.4 8.6,-4 2.6,-15.5 11.8,-18.1 11.8,-18.1 l 3.8,-13.9 c 0,-0.1 -15.5,4.7 -24.2,36 z"
       class="st10" /></g><g
     inkscape:label="g-clipp"
     style="display:inline"
     id="g870"><path
       sodipodi:nodetypes="cscscccccsccc"
       class="st17"
       d="m 994.8,835.2 c 0,0 76.7,-252.5 78.4,-258.6 1.7,-6.1 -3.8,-7.9 -3.8,-7.9 0,0 -22.4,-10.1 -28.2,-11.8 -5.8,-1.7 -21.1,-3 -21.1,-3 l -142.3,64.5 -31.2,48 -51.7,208.1 18,33.2 c 0,0 -2,8 4.4,11.5 6.4,3.5 26.4,14.1 26.4,14.1 0,0 2,0.2 6,-2.4 3.9,-2.6 145.1,-95.7 145.1,-95.7 z"
       id="path599"
       inkscape:connector-curvature="0"
       style="display:inline;fill:none;stroke:#000000;stroke-opacity:1" /><path
       sodipodi:nodetypes="ccscscscccccccc"
       style="display:inline;fill:none;stroke:#000000;stroke-opacity:1"
       inkscape:connector-curvature="0"
       id="path625"
       d="M 1251.2305,661.87484 1246.6,650.5 c 0,0 -25,-11.4 -28.5,-12.7 -3.5,-1.3 -5.5,1 -5.5,1 0,0 -114.1,72.1 -121.7,77.4 -7.6,5.3 -9.3,16.2 -9.3,16.2 0,0 -89.8,273.4 -90.8,276.7 -1,3.3 2.6,4.1 2.6,4.1 l 25.1,13.2 6.9,-6.3 c 0,0 16.0923,-0.9718 25.1923,-7.7718 3.1,-2.3 -5.0923,-4.5282 -5.0923,-4.5282 l 76,-225.2 42.8,-61.2 z"
       class="st17" /></g><g
     style="display:inline"
     inkscape:label="g-bats"
     id="g876"><path
       sodipodi:nodetypes="ccscccccccc"
       class="st10"
       d="m 1034,644.6 7.3,-26.6 c 0,0 2.4,-3.2 -5,-8.2 -7.4,-5 -14.2,-2.8 -14.2,-2.8 l -30.5,15.2 c 0,0 -1.1,-0.1 -1.8,3.4 -0.8,3.5 -4.9,19 -4.9,19 l 17.2,8 5.7,8.4 26.1,-13.9 z"
       id="path605"
       inkscape:connector-curvature="0"
       style="fill:none;stroke:#000000;stroke-opacity:1" /><path
       class="st10"
       d="m 1161.2,671.3 c 0,0 0.3,-2.9 -6.6,-5.3 -6.9,-2.4 -13.1,-1.9 -13.1,-1.9 l -28.5,17.4 -6.9,21.3 3.8,1.1 z"
       id="path607"
       inkscape:connector-curvature="0"
       style="display:inline;fill:none;stroke:#000000;stroke-opacity:1" /></g><g
     style="display:inline"
     inkscape:label="g-else"
     id="g908"><path
       class="st14"
       d="m 1060.3,680.8 -10.9,-1.3 -42.9,-19.9 -4.4,-7 -48,-22.5 -20.7,10.6 c 0,0 -6.3,2.1 -8.5,10.1 -2.3,7.9 -59.4,206 -59.4,206 l 149.8,77.6 66.6,-203.2 c 0,0 2.1,-10 7.5,-13.7 5.5,-3.8 20.5,-13.4 20.5,-13.4 z m -47.2,249.4 -143.8,-75.1 3.4,-12.1 144.5,75.1 z"
       id="path609"
       inkscape:connector-curvature="0"
       style="display:inline;fill:none;stroke:#000000;stroke-opacity:1" /><path
       class="st10"
       d="m 842.1,654.7 -26.3,99.7 c 0,0 0.1,2.5 3.5,4.2 3.3,1.7 17.2,6.9 17.2,6.9 L 867,658.3 856.2,653.7"
       id="path611"
       inkscape:connector-curvature="0"
       style="display:inline;fill:none;stroke:#000000;stroke-opacity:1" /><path
       class="st10"
       d="M 903.2,606.9 1020,554 c 0,0 -6.8,-2.6 -12.4,-4.8 -3.2,-1.2 -6,-2.3 -6.9,-2.6 -2.4,-0.8 -4.3,0.6 -4.3,0.6 l -101.7,44.1"
       id="path617"
       inkscape:connector-curvature="0"
       style="display:inline;fill:none;stroke:#000000;stroke-opacity:1" /><path
       class="st10"
       d="M 833.5,776.5 805.8,880.2 789,871.4 c 0,0 -2.9,-1.1 -3.3,-4 -0.4,-2.9 27.7,-103.8 27.7,-103.8 0,0 0,3.2 3,4.9 2.9,1.9 17.1,8 17.1,8 z"
       id="path619"
       inkscape:connector-curvature="0"
       style="display:inline;fill:none;stroke:#000000;stroke-opacity:1" /><path
       class="st10"
       d="m 1270.1,689.7 c 3.6,-11.2 4.1,-17.8 -9.1,-23.7 -0.7,-2.8 -5.4,-6.8 -5.4,-6.8 l -91.3,62.2 -42.8,61.2 -37.3,111.1 17.3,7.9 c 0,0 8.1,3.9 11.8,1.7 3.7,-2.2 16.5,-12.9 16.5,-12.9 l -2.8,9.5 -15.2,12.4 c 0,0 -3.4,3.3 -11.3,0 -7.9,-3.3 -19.3,-9 -19.3,-9 l -35.7,104.5 16.6,7.5 c 0,0 9.6,5.6 16.5,-2.4 6.6,2.3 12.1,5.8 12.1,5.8 l 0.8,3.2 85.9,-77.6 3,-9.1 16.1,-27.2 4,-3.1 34.5,-95.7 -12.9,11.3 2.3,-8.2 13.5,-10.5 34.6,-94.8 -1.6,-0.6 c -0.2,0 0.4,-9 -0.8,-16.7 z m -74.7,174.5 c -23.6,45.7 -51.3,78.3 -62,72.8 -10.7,-5.5 -0.2,-47 23.3,-92.7 23.6,-45.7 51.3,-78.3 62,-72.8 10.7,5.5 0.3,47 -23.3,92.7 z"
       id="path639"
       inkscape:connector-curvature="0"
       style="display:inline;fill:none;stroke:#000000;stroke-opacity:1" /><path
       class="st36"
       d="m 836.5,765.5 2.2,-7.9 -11,-30.2 c 0,0 -3,-7 -2.4,-9.5 0.7,-2.5 -9.6,36.4 -9.6,36.4 0,0 -0.8,2.8 6.1,5.4 7,2.7 14.7,5.8 14.7,5.8 z"
       id="path641"
       inkscape:connector-curvature="0"
       style="display:inline;fill:none;stroke:#000000;stroke-opacity:1" /><path
       class="st36"
       d="m 833.5,776.5 -2.1,7.8 -27.1,17.7 c 0,0 -2,0.8 -2.3,2.1 -0.3,1.3 11.4,-40.4 11.4,-40.4 0,0 -1.1,2.8 3,4.9 4,2.2 17.1,7.9 17.1,7.9 z"
       id="path643"
       inkscape:connector-curvature="0"
       style="display:inline;fill:none;stroke:#000000;stroke-opacity:1" /><path
       class="st36"
       d="m 1272.3,707 -49.9,83.5 c -2.1,15.7 -10.1,39.2 -22.5,64.8 l 3.5,41.2 z"
       id="path645"
       inkscape:connector-curvature="0"
       style="display:inline;fill:none;stroke:#000000;stroke-opacity:1" /><path
       class="st36"
       d="m 1081.1,903.3 -4.4,12.9 v 0 l 13.9,28.7 c 0,0 3.6,11.6 15.5,19.6 4.1,2.7 26.5,20.1 26.5,20.1 l 3.9,-3.5 31.3,-28.3 -7.8,-33.5 c -0.4,0.5 -0.9,1 -1.3,1.6 -0.1,0.2 -0.3,0.3 -0.4,0.5 -0.4,0.5 -0.9,1 -1.3,1.5 0,0 0,0 0,0 0,0 0,0 0,0 -0.2,0.2 -0.4,0.5 -0.6,0.7 -0.5,0.5 -0.9,1 -1.4,1.5 0,0 0,0 0,0 0,0 0,0 0,0 0,0 -0.1,0.1 -0.1,0.1 v 0 c -0.6,0.7 -1.3,1.3 -1.9,2 0,0 0,0 0,0 -0.6,0.6 -1.2,1.2 -1.9,1.8 0,0 0,0 0,0 0,0 0,0 0,0 -0.1,0.1 -0.2,0.2 -0.3,0.3 -0.6,0.6 -1.2,1.1 -1.8,1.6 -0.1,0.1 -0.1,0.1 -0.2,0.1 -0.5,0.4 -0.9,0.8 -1.4,1.1 v 0 0 c -0.4,0.3 -0.8,0.7 -1.2,1 v 0 c -0.2,0.1 -0.3,0.3 -0.5,0.4 v 0 c -0.1,0.1 -0.1,0.1 -0.2,0.2 -0.5,0.4 -1,0.7 -1.4,1 v 0 c -0.1,0.1 -0.2,0.1 -0.3,0.2 -0.5,0.3 -1,0.6 -1.5,0.9 -0.1,0 -0.2,0.1 -0.3,0.1 -0.3,0.2 -0.7,0.4 -1,0.5 v 0 c -0.4,0.2 -0.8,0.4 -1.3,0.5 v 0 c -0.1,0 -0.1,0 -0.2,0.1 v 0 0 c -0.4,0.2 -0.8,0.3 -1.2,0.4 v 0 c -0.1,0 -0.1,0 -0.2,0 -0.4,0.1 -0.7,0.1 -1,0.2 -0.1,0 -0.2,0 -0.2,0 v 0 c 0,0 0,0 0,0 -0.4,0 -0.8,0 -1.2,0 v 0 0 c 0,0 0,0 -0.1,0 v 0 0 c -0.4,0 -0.8,-0.1 -1.1,-0.2 v 0 c 0,0 0,0 0,0 v 0 c -0.4,-0.1 -0.7,-0.2 -1,-0.4 -10.7,-5.5 -0.2,-47 23.3,-92.7 0.8,-1.5 1.5,-2.9 2.3,-4.4 0.2,-0.3 0.4,-0.7 0.5,-1 0.6,-1.1 1.2,-2.2 1.8,-3.3 0.2,-0.3 0.3,-0.6 0.5,-0.9 0.6,-1.1 1.2,-2.3 1.9,-3.4 0.1,-0.2 0.3,-0.5 0.4,-0.7 0.7,-1.2 1.3,-2.3 2,-3.5 0.1,-0.1 0.2,-0.3 0.3,-0.4 0.7,-1.2 1.4,-2.4 2.1,-3.6 0,-0.1 0.1,-0.1 0.1,-0.2 0.8,-1.3 1.5,-2.5 2.3,-3.7 0,0 0,0 0,-0.1 1.6,-2.6 3.2,-5 4.7,-7.5 0,0 0,0 0,0 v 0 c 2.4,-3.6 4.7,-7 7,-10.2 v 0 c 0,0 0,0 0,0 0,0 0,0 0,0 0.7,-1 1.4,-2 2.1,-2.9 0,0 0,0 0,0 0,0 0,0 0,0 1.4,-1.9 2.9,-3.8 4.3,-5.5 0,0 0,0 0,0 0,0 0,0 0,0 0.7,-0.9 1.4,-1.7 2,-2.5 0,0 0,0 0.1,-0.1 0,0 0,0 0,0 0.7,-0.8 1.3,-1.6 2,-2.3 0,0 0,0 0,0 0,0 0,0 0,-0.1 0.7,-0.8 1.3,-1.5 2,-2.2 v 0 0 0 c 0,0 66.5,-119.4 65.9,-119.6 -0.7,-2.8 -5.4,-6.8 -5.4,-6.8 l -43.6,29.7 c 0,0 2.5,1.6 4.2,6.3 1.7,4.7 -1.7,18.1 -7.1,26.9 -2.5,4.1 -70.4,118.8 -81.3,127.7 -7.4,6 -36.9,29.2 -38.6,29.7 l -5.1,14.2 z"
       id="path649"
       inkscape:connector-curvature="0"
       style="display:inline;fill:none;stroke:#000000;stroke-opacity:1" /><path
       class="st0"
       d="m 917.3,792.3 6.2,-20 93.7,46.9 -16.8,54 -92.9,-47.6 6.5,-20.3 -7.6,-3.5 c 0,0 -5.4,-4 -3.8,-9 1.6,-5.1 5.8,-4.2 5.8,-4.2 z"
       id="path659"
       inkscape:connector-curvature="0"
       style="display:inline;fill:none;stroke:#000000;stroke-opacity:1" /><polygon
       style="display:inline;fill:none;stroke:#000000;stroke-opacity:1"
       id="polygon715"
       points="872.7,843 1017.2,918.1 1013.1,930.2 869.3,855.1 "
       class="st34" /><polygon
       style="display:inline;fill:none;stroke:#000000;stroke-opacity:1"
       id="polygon603"
       points="1006.5,659.6 1054.8,637.4 1146.8,680.5 1100.9,709.6 "
       class="st17" /><path
       style="display:inline;fill:none;stroke:#000000;stroke-opacity:1"
       inkscape:connector-curvature="0"
       id="path601"
       d="m 846.5,933 c 0,0 -4.9,0.2 -4,-4.2 0.9,-4.4 78.3,-275 78.3,-275 0,0 2,-11.8 9.7,-15.6 7.7,-3.8 137.9,-67.6 137.9,-67.6 0,0 3.4,-0.9 4.1,0.9 0,0 2.5,1 0.9,5.3 -1.6,4.3 -78.6,258.4 -78.6,258.4 z"
       class="st32" /></g></g>



</svg>